<?xml version="1.0" standalone="no"?><!DOCTYPE svg PUBLIC "-//W3C//DTD SVG 1.1//EN" "http://www.w3.org/Graphics/SVG/1.1/DTD/svg11.dtd"><svg t="1668775557830" class="icon" viewBox="0 0 1024 1024" version="1.1" xmlns="http://www.w3.org/2000/svg" p-id="2620" xmlns:xlink="http://www.w3.org/1999/xlink" width="200" height="200"><path d="M710.630144 390.340768c-171.999262 0-311.377389 139.400077-311.377389 311.360428 0 171.948378 139.419033 311.348455 311.377389 311.348455 171.940397 0 311.339476-139.400077 311.339476-311.348455C1021.96962 529.740845 882.569543 390.340768 710.630144 390.340768zM780.109688 659.599818c5.22002 0.960795 10.220544 1.449673 14.621444 1.449673l47.299448 0c4.500671 0 8.439631 1.701096 11.719105 5.620102 3.32038 3.780324 4.920707 7.401015 4.920707 11.190318l0 33.998972c0 6.760485-4.761073 9.891299-13.840237 9.891299l-81.99981 0c-3.620691 0-7.08075 0.959797-10.460992 2.980161-3.279474 1.758963-4.739124 4.718172-4.739124 8.349837 0 3.948937 0.079817 7.730259 0.560713 11.96953 0.479899 4.280177 0.660484 7.900868 0.660484 10.540809 0 5.640056 4.879801 7.649445 13.980914 5.640056l80.700792 0c9.259749 0 13.840237 4.249248 13.840237 12.84951l0 31.270235c0 9.259749-6.74053 14.000868-19.62097 14.000868l-18.079508 0c-7.240383 0-14.719219 0.319267-22.759766 0.639532-7.720282 0.650507-15.120299 0.801161-21.559521 0.801161l-12.520266 0c-8.121361 0-12.380587 4.761073-12.380587 14.30916l0 46.791613 0 9.739648c0 4.899755-3.780324 7.230406-11.179343 7.230406L694.730633 898.86271c-11.980505 0-18.000688-5.151178-18.000688-15.511401 0-3.948937 0.340219-11.89969 0.740301-24.300231 0.620576-12.199003 0.300311-20.648611-0.679441-25.399708 0-4.660305-0.540759-7.790122-1.440694-9.239795-0.801161-1.359879-3.460059-2.019366-8.279997-2.019366l-83.360687 0c-12.03937 0-18.079508-6.1-18.079508-18.480587 0-2.659896-0.260402-6.270609-1.300016-10.689468-0.979751-4.099591-0.979751-8.449608 0-13.349363 1.040612-4.661302 2.419447-8.91953 4.20036-12.860485 1.919595-3.620691 5.540285-5.059389 11.000753-4.099591l16.640809 0 27.820153 0 27.659521 0 13.978918 0 6.920118 0c1.919595 0 2.719758-2.330651 2.719758-7.241381l0-26.840401c0-4.761073-5.540285-7.079752-16.481176-7.079752l-80.54016 0c-3.780324 0-6.919121-0.169611-9.719693-0.569693-2.900344-0.468924-4.20036-3.128819-4.20036-7.720282l0-17.278346c0-7.401015-0.459944-13.031094-1.380831-16.961074-1.898643-5.630079-0.459944-10.3702 4.040727-13.978918 4.679261-3.96091 10.760305-5.641054 18.079508-5.641054 7.479834 0.960795 15.600198 1.141381 24.51873 0.650507 8.680079-0.499853 15.519383-0.650507 20.100869-0.650507l16.480178 0c5.560239 0 7.480831-2.009388 5.560239-5.630079-1.779915-2.079228-7.3202-9.159978-16.481176-21.219302-9.419383-12.621035-19.059259-25.171232-29.180032-38.349987-12.079278-16.150934-26.060192-33.609865-41.740206-52.418699-6.439222-10.360223-5.059389-18.969465 4.20036-25.399708 4.560534-2.890367 9.400426-6.429245 14.459815-10.850099 5.139206-4.179408 11.000753-8.199183 17.519792-11.89969 9.159978-5.699919 17.918876-0.580667 26.279688 15.428591 2.900344 3.949935 8.13932 10.689468 16.080096 20.669563 7.880913 10.040956 16.000279 20.320365 24.201458 31.819973 8.199183 11.501604 16.158915 21.560519 23.638749 30.321412 7.480831 9.080161 11.499608 14.630423 12.620037 16.480178 1.760959 3.780324 5.141201 6.1 10.199592 7.08075 5.15916 0.959797 8.77985-0.650507 10.540809-4.2702 0.81912-2.010386 4.660305-7.791119 11.759013-17.840057 6.900164-9.72967 14.619448-20.74938 22.899446-33.129967 8.359814-12.290793 16.219776-23.720561 23.560928-34.810111 7.559651-10.770282 12.140138-17.690401 13.979916-20.430113 4.600442-6.660714 8.680079-10.840122 11.659242-12.699854 3.299428-1.910615 8.600262-1.349902 16.159913 1.380831 4.580488 1.83878 9.740645 4.659307 15.039484 8.349837 5.699919 3.86912 9.480243 6.768466 11.161385 8.690056 10.219546 10.459994 13.099936 19.379524 8.379768 26.780539-1.779915 2.979163-6.940073 10.039958-15.139255 21.379933-8.660125 11.250181-17.440973 23.219711-27.179623 36.10015-9.880325 12.699854-18.459635 24.599544-26.3615 36.10015-7.858964 11.319023-12.219955 18.089485-13.319432 19.768631C774.150365 655.650881 775.131114 658.47041 780.109688 659.599818zM384.571449 0.001596C172.792481 0.001596 1.172349 85.152176 1.172349 190.201089c0 105.029956 171.619134 190.188517 383.399099 190.188517 211.720102 0 383.358193-85.139605 383.358193-190.188517S596.290553 0.001596 384.571449 0.001596L384.571449 0.001596zM505.39017 429.190608c-38.019745 6.260632-78.558708 9.79951-120.819719 9.79951-182.47921 0-334.8585-63.288752-373.598591-147.979387C4.751136 304.591562 1.172349 318.71016 1.172349 333.220858c0 105.028959 171.619134 190.208472 383.399099 190.208472 10.300361 0 20.380227-0.37913 30.461092-0.780209C438.751106 485.871525 469.430697 454.051552 505.39017 429.190608L505.39017 429.190608zM757.409785 376.790865c6.639762-13.979916 10.479949-28.528527 10.479949-43.539078 0-14.539632-3.55983-28.629296-9.79951-42.20913-13.759422 30.109898-42.158247 57.459131-80.958201 80.279758 5.479425-0.269382 10.820168-0.850049 16.340499-0.850049C715.349313 370.471368 736.730244 372.731182 757.409785 376.790865L757.409785 376.790865zM384.571449 564.139899c-182.47921 0-334.8585-63.290748-373.598591-147.990362-6.220723 13.589811-9.79951 27.69943-9.79951 42.210128 0 102.049796 162.139889 185.08922 365.539088 189.748527 4.860844-29.560159 13.539926-57.809328 25.680064-84.160851C389.790471 563.990242 387.190438 564.139899 384.571449 564.139899L384.571449 564.139899zM362.771479 688.799804C190.111734 683.989843 48.172484 622.579779 10.972857 541.290339c-6.220723 13.599788-9.79951 27.69943-9.79951 42.220105 0 102.618491 163.979667 186.03904 369.018103 189.819365-5.099297-23.099986-7.980684-47.031064-7.980684-71.659541C362.210766 697.350181 362.590894 693.109913 362.771479 688.799804L362.771479 688.799804zM10.97186 666.451095C4.751136 680.040906 1.172349 694.13955 1.172349 708.650248c0 105.028959 171.619134 190.210467 383.399099 190.210467 14.259275 0 28.260143-0.449967 42.10038-1.210223-18.519498-25.22012-33.379394-53.290698-44.23947-83.279873C200.911947 813.869769 49.552317 750.800513 10.97186 666.451095L10.97186 666.451095zM459.990362 935.729102c-24.418958 2.429424-49.559261 3.839189-75.419911 3.839189-182.47921 0-334.8585-63.288752-373.598591-147.990362C4.751136 805.169735 1.172349 819.288333 1.172349 833.799031c0 105.039933 171.619134 190.199492 383.399099 190.199492 62.419747 0 121.179892-7.550671 173.279324-20.690515C521.11109 986.758988 488.089874 963.839588 459.990362 935.729102L459.990362 935.729102z" p-id="2621"></path></svg>