<?xml version="1.0" standalone="no"?><!DOCTYPE svg PUBLIC "-//W3C//DTD SVG 1.1//EN" "http://www.w3.org/Graphics/SVG/1.1/DTD/svg11.dtd"><svg t="1669018773002" class="icon" viewBox="0 0 1024 1024" version="1.1" xmlns="http://www.w3.org/2000/svg" p-id="1737" xmlns:xlink="http://www.w3.org/1999/xlink" width="200" height="200"><path d="M950.856294 822.857322H639.999429a18.285698 18.285698 0 0 1-18.285698-18.285698v-38.399965a73.142792 73.142792 0 0 0-73.142792-73.142792h-73.142792a73.142792 73.142792 0 0 0-73.142792 73.142792V804.571624a18.285698 18.285698 0 0 1-18.285698 18.285698H73.142792a73.142792 73.142792 0 0 0-73.142792 73.142792v54.857094a73.142792 73.142792 0 0 0 73.142792 73.142792h877.713502a73.142792 73.142792 0 0 0 73.142792-73.142792v-54.857094a73.142792 73.142792 0 0 0-73.142792-73.142792z" p-id="1738"></path><path d="M546.925226 21.943752l83.56564 166.582708a40.045679 40.045679 0 0 0 29.62283 21.577124l182.85698 26.148548a41.325677 41.325677 0 0 1 21.394267 70.399937l-130.19417 124.70846a41.874248 41.874248 0 0 0-12.068561 36.571396l31.085687 178.285555a39.679965 39.679965 0 0 1-56.502807 43.702818L530.285241 603.428947a38.399966 38.399966 0 0 0-36.571396 0l-167.862707 86.857065a39.679965 39.679965 0 0 1-56.502807-43.702818l31.085686-178.285555a41.874248 41.874248 0 0 0-12.06856-36.571396l-129.462742-125.074174a41.325677 41.325677 0 0 1 21.394267-70.399937l182.856979-26.148548a40.045679 40.045679 0 0 0 29.622831-21.577124l84.297068-166.582708a38.76568 38.76568 0 0 1 69.851366 0z" p-id="1739"></path></svg>