<?xml version="1.0" standalone="no"?><!DOCTYPE svg PUBLIC "-//W3C//DTD SVG 1.1//EN" "http://www.w3.org/Graphics/SVG/1.1/DTD/svg11.dtd"><svg t="1660791107765" class="icon" viewBox="0 0 1024 1024" version="1.1" xmlns="http://www.w3.org/2000/svg" p-id="5978" xmlns:xlink="http://www.w3.org/1999/xlink" width="200" height="200"><defs><style type="text/css">@font-face { font-family: feedback-iconfont; src: url("//at.alicdn.com/t/font_1031158_u69w8yhxdu.woff2?t=1630033759944") format("woff2"), url("//at.alicdn.com/t/font_1031158_u69w8yhxdu.woff?t=1630033759944") format("woff"), url("//at.alicdn.com/t/font_1031158_u69w8yhxdu.ttf?t=1630033759944") format("truetype"); }
</style></defs><path d="M513.037 61.537c-247.232 0-447.654 200.421-447.654 447.654s200.421 447.654 447.654 447.654 447.654-200.421 447.654-447.654S760.27 61.537 513.037 61.537z m193.043 659.1c-0.003 15.026-12.227 27.25-27.253 27.25H344.161c-15.026 0-27.25-12.224-27.25-27.25V280.563c0-15.026 12.224-27.25 27.25-27.25h66.31c3.763-13.638 16.271-23.687 31.089-23.687h30.183c2.231-20.089 19.315-35.765 39.99-35.765s37.757 15.677 39.99 35.765h28.38c14.82 0 27.328 10.048 31.09 23.687h67.639c15.026 0 27.25 12.224 27.25 27.25v440.074z" p-id="5979"></path><path d="M422.003 259.488a19.17 19.17 0 0 1-0.033 0.586l-0.013 0.198c0 11.177 9.122 20.297 20.332 20.297h138.543c7.965 0 14.856-4.615 18.19-11.302a20.193 20.193 0 0 0 1.411-7.388c0-11.211-9.12-20.331-20.332-20.331h-40.343l0.255-6.207c0.018-0.413 0.033-0.829 0.033-1.246 0-15.613-12.701-28.314-28.314-28.314s-28.314 12.701-28.314 28.314c0 0.414 0.015 0.826 0.033 1.237l0.265 6.216H441.56c-9.124 0-16.861 6.042-19.426 14.334l-0.131 3.606z" p-id="5980"></path><path d="M678.827 265.234h-66.129a31.962 31.962 0 0 1-2.755 8.865c-4.826 11.741-16.381 20.031-29.842 20.031H441.559c-16.651 0-30.394-12.684-32.078-28.897H344.16c-8.452 0-15.328 6.876-15.328 15.328v440.075c0 8.452 6.876 15.328 15.328 15.328h334.666c8.452 0 15.328-6.876 15.328-15.328V280.563c0.001-8.453-6.874-15.329-15.327-15.329zM614.574 655.53H405.815v-24.45h208.759v24.45z m0-65.73H405.815v-24.45h208.759v24.45z m0-65.732H405.815v-24.45h208.759v24.45z m0-65.73H405.815v-24.45h208.759v24.45z m0-65.73H405.815v-24.45h208.759v24.45z" p-id="5981"></path></svg>