<?xml version="1.0" standalone="no"?><!DOCTYPE svg PUBLIC "-//W3C//DTD SVG 1.1//EN" "http://www.w3.org/Graphics/SVG/1.1/DTD/svg11.dtd"><svg t="1660791082925" class="icon" viewBox="0 0 1024 1024" version="1.1" xmlns="http://www.w3.org/2000/svg" p-id="5379" xmlns:xlink="http://www.w3.org/1999/xlink" width="200" height="200"><defs><style type="text/css">@font-face { font-family: feedback-iconfont; src: url("//at.alicdn.com/t/font_1031158_u69w8yhxdu.woff2?t=1630033759944") format("woff2"), url("//at.alicdn.com/t/font_1031158_u69w8yhxdu.woff?t=1630033759944") format("woff"), url("//at.alicdn.com/t/font_1031158_u69w8yhxdu.ttf?t=1630033759944") format("truetype"); }
</style></defs><path d="M805.4 928.9H218.6c-42.5 0-78.8-30.2-85.5-72.2L70.1 486c-6.1-37.9 11.8-74.2 46.1-91.6 34.3-17.4 74.2-11.8 101.4 15.9l82.9 82.9L470 332.9l-41-40.4c-43.5-45.6-43-118.8 1.5-163.3s117.8-45.6 163.3-1.5l0.5 0.5c22 22 34.3 51.2 34.3 82.4S616.3 271 594.3 293L554 333.4l169.5 160.3 82.9-82.9c27.1-27.1 67.1-33.8 101.4-15.9 34.3 17.4 52.2 53.8 46.1 91.6l-63 371.2c-6.7 40.4-43 71.2-85.5 71.2z" p-id="5380"></path></svg>