<?xml version="1.0" standalone="no"?><!DOCTYPE svg PUBLIC "-//W3C//DTD SVG 1.1//EN" "http://www.w3.org/Graphics/SVG/1.1/DTD/svg11.dtd"><svg t="1667220773860" class="icon" viewBox="0 0 1024 1024" version="1.1" xmlns="http://www.w3.org/2000/svg" p-id="3736" xmlns:xlink="http://www.w3.org/1999/xlink" width="200" height="200"><path d="M211.2 1024c-51.2 0-160-32-160-140.8V198.4C51.2 64 134.4 6.4 211.2 6.4H768c96 0 160 64 160 166.4v230.4c0 19.2-12.8 44.8-38.4 44.8-32-6.4-44.8-19.2-44.8-44.8V179.2c0-70.4-64-96-89.6-96H217.6c-38.4 0-83.2 38.4-89.6 121.6v640c0 96 64 96 89.6 96h192c25.6-6.4 38.4 19.2 38.4 38.4s-12.8 44.8-38.4 44.8H211.2z" p-id="3737"></path><path d="M268.8 172.8H704c19.2 0 32 12.8 32 32s-12.8 32-32 32H268.8c-19.2 0-32-12.8-32-32s12.8-32 32-32zM268.8 364.8H704c19.2 0 32 12.8 32 32s-12.8 32-32 32H268.8c-19.2 0-32-12.8-32-32s12.8-32 32-32zM268.8 550.4h185.6c19.2 0 32 12.8 32 32s-12.8 32-32 32H268.8c-19.2 0-32-12.8-32-32s12.8-32 32-32zM524.8 1017.6c-12.8 0-25.6-12.8-32-32v-147.2c0-6.4 0-12.8 6.4-19.2l294.4-294.4c19.2-12.8 38.4-19.2 64-19.2s44.8 6.4 57.6 25.6l70.4 70.4c19.2 19.2 25.6 38.4 25.6 57.6 0 25.6-6.4 44.8-25.6 57.6l-294.4 294.4c-6.4 6.4-12.8 6.4-19.2 6.4H524.8z m128-57.6l-102.4-102.4 6.4 102.4h96z m44.8-32l172.8-172.8-108.8-108.8-172.8 172.8 108.8 108.8z m217.6-217.6l32-32c12.8-12.8 12.8-25.6 0-38.4l-70.4-64c-6.4-6.4-12.8-6.4-19.2-6.4s-12.8 0-19.2 6.4l-32 32 108.8 102.4z" p-id="3738"></path></svg>